<svg xmlns="http://www.w3.org/2000/svg" width="18" height="18" viewBox="0 0 18 18">
  <path id="Icon_color" data-name="Icon color" d="M9,18H9A8.975,8.975,0,0,1,4.03,16.506l-2.565.828H1.329a.459.459,0,0,1-.324-.135A.441.441,0,0,1,.9,16.74l.81-2.466A9,9,0,1,1,9,18ZM9,1.8a7.2,7.2,0,1,0,5.092,2.109A7.209,7.209,0,0,0,9,1.8Zm2.515,11.466a6.875,6.875,0,0,1-2.263-.62A9.369,9.369,0,0,1,5.47,9.3a4.29,4.29,0,0,1-.9-2.286A2.465,2.465,0,0,1,5.4,5.157a1.14,1.14,0,0,1,.738-.271h.3c.229,0,.333,0,.486.378S7.542,6.8,7.595,6.9a.425.425,0,0,1,0,.414,1.521,1.521,0,0,1-.243.352c-.048.056-.1.107-.148.157a2.684,2.684,0,0,0-.185.2.359.359,0,0,0-.09.477,6.8,6.8,0,0,0,1.233,1.53,5.676,5.676,0,0,0,1.8,1.107.495.495,0,0,0,.54-.091,6.9,6.9,0,0,0,.585-.791.432.432,0,0,1,.549-.153c.2.061,1.244.577,1.513.711l.116.057a.772.772,0,0,1,.316.2,1.794,1.794,0,0,1-.144,1.062,2.083,2.083,0,0,1-1.485,1.071A1.858,1.858,0,0,1,11.515,13.265Z" fill="#fff"/>
</svg>
